<?xml version="1.0" standalone="no"?>
<!DOCTYPE svg PUBLIC "-//W3C//DTD SVG 20010904//EN"
 "http://www.w3.org/TR/2001/REC-SVG-20010904/DTD/svg10.dtd">
<svg version="1.0" xmlns="http://www.w3.org/2000/svg"
 width="512.000000pt" height="512.000000pt" viewBox="0 0 512.000000 512.000000"
 preserveAspectRatio="xMidYMid meet">
<metadata>
Created by potrace 1.14, written by Peter Selinger 2001-2017
</metadata>
<g transform="translate(0.000000,512.000000) scale(0.100000,-0.100000)"
fill="#000000" stroke="none">
<path d="M2379 5116 c-2 -2 -40 -6 -83 -10 -44 -4 -82 -9 -85 -11 -4 -2 -34
-7 -66 -10 -87 -10 -345 -77 -461 -120 -686 -254 -1219 -769 -1497 -1445 -31
-77 -91 -255 -102 -305 -2 -11 -8 -35 -14 -53 -5 -18 -10 -35 -10 -37 0 -3 -2
-18 -5 -33 -15 -72 -19 -96 -35 -217 -14 -100 -18 -180 -15 -350 1 -121 5
-236 9 -255 3 -19 13 -78 21 -130 27 -166 79 -357 141 -515 35 -89 122 -271
159 -332 10 -17 36 -60 57 -95 184 -306 516 -633 842 -827 288 -171 630 -297
915 -337 19 -3 78 -11 130 -18 89 -12 495 -14 560 -2 14 2 45 7 70 10 72 11
201 36 245 47 22 6 49 13 60 15 111 21 337 108 510 196 657 335 1142 947 1319
1663 13 55 27 116 30 135 3 19 8 49 11 65 24 141 30 218 30 410 0 193 -3 251
-16 330 -4 28 -10 66 -13 85 -2 19 -9 58 -15 85 -6 28 -13 61 -15 75 -19 96
-80 286 -133 415 -183 443 -522 859 -918 1127 -339 228 -690 365 -1085 423
-19 3 -53 7 -75 11 -43 6 -461 15 -466 10z m-641 -1360 c226 -45 427 -253 515
-533 34 -105 44 -178 26 -188 -8 -5 -19 1 -31 16 -129 162 -241 242 -415 295
-293 89 -612 -22 -815 -285 -22 -29 -29 -33 -41 -23 -13 11 -13 23 3 95 70
321 278 563 534 621 53 13 168 14 224 2z m1862 -6 c215 -59 379 -222 478 -475
27 -69 61 -214 55 -232 -9 -25 -32 -12 -67 35 -106 145 -293 260 -466 287
-293 47 -557 -62 -742 -305 -82 -108 -46 126 48 310 132 260 342 402 584 395
36 -1 85 -8 110 -15z m422 -1553 c50 -29 81 -80 83 -137 0 -19 -7 -72 -17
-117 -154 -709 -768 -1219 -1487 -1236 -214 -5 -416 31 -613 108 -329 131
-589 353 -777 667 -97 162 -177 391 -195 563 -9 79 57 161 141 174 20 3 662 6
1428 5 l1393 -1 44 -26z"/>
</g>
</svg>
